<svg xmlns="http://www.w3.org/2000/svg" xmlns:xlink="http://www.w3.org/1999/xlink" width="357" zoomAndPan="magnify" viewBox="0 0 267.75 79.499998" height="106" preserveAspectRatio="xMidYMid meet" version="1.0"><defs><g/><clipPath id="84233124c3"><path d="M 0.710938 0 L 266.789062 0 L 266.789062 79.003906 L 0.710938 79.003906 Z M 0.710938 0 " clip-rule="nonzero"/></clipPath><clipPath id="af140dfdb1"><path d="M 0.710938 9.34375 L 65.554688 9.34375 L 65.554688 43 L 0.710938 43 Z M 0.710938 9.34375 " clip-rule="nonzero"/></clipPath><clipPath id="6a8833f2a6"><path d="M 0.710938 40 L 65.554688 40 L 65.554688 61 L 0.710938 61 Z M 0.710938 40 " clip-rule="nonzero"/></clipPath><clipPath id="d612bdf7dc"><path d="M 0.710938 58 L 65.554688 58 L 65.554688 78.660156 L 0.710938 78.660156 Z M 0.710938 58 " clip-rule="nonzero"/></clipPath></defs><g clip-path="url(#84233124c3)"><path fill="#ffffff" d="M 0.710938 0 L 266.789062 0 L 266.789062 79.003906 L 0.710938 79.003906 Z M 0.710938 0 " fill-opacity="1" fill-rule="nonzero"/></g><g fill="#0795ff" fill-opacity="1"><g transform="translate(73.142135, 48.596629)"><g><path d="M 21.625 -6.28125 L 7.59375 -6.28125 L 4.9375 0 L 0.046875 0 L 12.328125 -27.828125 L 17.140625 -27.828125 L 29.3125 0 L 24.296875 0 Z M 19.84375 -10.453125 L 14.59375 -22.828125 L 9.34375 -10.453125 Z M 19.84375 -10.453125 "/></g></g></g><g fill="#0795ff" fill-opacity="1"><g transform="translate(108.448383, 48.596629)"><g><path d="M 30.625 -0.234375 L 32.484375 3.0625 C 30.179688 5.101562 27.664062 6.125 24.9375 6.125 C 23.207031 6.125 21.570312 5.601562 20.03125 4.5625 C 18.5 3.53125 17.175781 2.078125 16.0625 0.203125 C 11.90625 0.171875 8.414062 -1.191406 5.59375 -3.890625 C 2.769531 -6.597656 1.359375 -9.9375 1.359375 -13.90625 C 1.359375 -17.882812 2.773438 -21.21875 5.609375 -23.90625 C 8.441406 -26.601562 11.9375 -27.953125 16.09375 -27.953125 C 20.257812 -27.953125 23.757812 -26.601562 26.59375 -23.90625 C 29.4375 -21.21875 30.859375 -17.890625 30.859375 -13.921875 C 30.859375 -10.765625 29.9375 -7.972656 28.09375 -5.546875 C 26.25 -3.117188 23.832031 -1.441406 20.84375 -0.515625 C 22.425781 1.203125 23.972656 2.0625 25.484375 2.0625 C 26.941406 2.0625 28.65625 1.296875 30.625 -0.234375 Z M 9.0625 -20.890625 C 7.101562 -18.992188 6.125 -16.664062 6.125 -13.90625 C 6.125 -11.15625 7.109375 -8.816406 9.078125 -6.890625 C 11.054688 -4.972656 13.410156 -4.015625 16.140625 -4.015625 C 18.867188 -4.015625 21.203125 -4.972656 23.140625 -6.890625 C 25.078125 -8.816406 26.046875 -11.15625 26.046875 -13.90625 C 26.046875 -16.664062 25.078125 -18.992188 23.140625 -20.890625 C 21.203125 -22.785156 18.867188 -23.734375 16.140625 -23.734375 C 13.390625 -23.734375 11.03125 -22.785156 9.0625 -20.890625 Z M 9.0625 -20.890625 "/></g></g></g><g fill="#0795ff" fill-opacity="1"><g transform="translate(147.213553, 48.596629)"><g><path d="M 8.34375 -4.25 L 20.40625 -4.25 L 20.40625 0 L 3.65625 0 L 3.65625 -27.828125 L 8.34375 -27.828125 Z M 8.34375 -4.25 "/></g></g></g><g fill="#0795ff" fill-opacity="1"><g transform="translate(174.409216, 48.596629)"><g><path d="M 21.625 -6.28125 L 7.59375 -6.28125 L 4.9375 0 L 0.046875 0 L 12.328125 -27.828125 L 17.140625 -27.828125 L 29.3125 0 L 24.296875 0 Z M 19.84375 -10.453125 L 14.59375 -22.828125 L 9.34375 -10.453125 Z M 19.84375 -10.453125 "/></g></g></g><g fill="#0795ff" fill-opacity="1"><g transform="translate(209.715464, 48.596629)"><g><path d="M 33.078125 0 L 28.75 0 L 28.703125 -20.796875 L 19.921875 -2.90625 L 16.859375 -2.90625 L 8.078125 -20.796875 L 8.078125 0 L 3.65625 0 L 3.65625 -27.828125 L 9.21875 -27.828125 L 18.40625 -9.34375 L 27.5625 -27.828125 L 33.078125 -27.828125 Z M 33.078125 0 "/></g></g></g><g fill="#0979bd" fill-opacity="1"><g transform="translate(73.142135, 71.351158)"><g><path d="M 8.921875 -9.453125 L 3.34375 -9.453125 L 3.34375 -6.234375 L 8.40625 -6.234375 L 8.40625 -4.5625 L 3.34375 -4.5625 L 3.34375 0 L 1.46875 0 L 1.46875 -11.140625 L 8.9375 -11.140625 Z M 8.921875 -9.453125 "/></g></g></g><g fill="#0979bd" fill-opacity="1"><g transform="translate(86.259109, 71.351158)"><g><path d="M 2.234375 -9.5625 C 3.367188 -10.644531 4.769531 -11.1875 6.4375 -11.1875 C 8.101562 -11.1875 9.503906 -10.644531 10.640625 -9.5625 C 11.773438 -8.488281 12.34375 -7.15625 12.34375 -5.5625 C 12.34375 -3.976562 11.773438 -2.640625 10.640625 -1.546875 C 9.503906 -0.460938 8.101562 0.078125 6.4375 0.078125 C 4.769531 0.078125 3.367188 -0.460938 2.234375 -1.546875 C 1.109375 -2.640625 0.546875 -3.976562 0.546875 -5.5625 C 0.546875 -7.15625 1.109375 -8.488281 2.234375 -9.5625 Z M 6.453125 -9.5 C 5.347656 -9.5 4.40625 -9.117188 3.625 -8.359375 C 2.84375 -7.597656 2.453125 -6.664062 2.453125 -5.5625 C 2.453125 -4.457031 2.84375 -3.519531 3.625 -2.75 C 4.414062 -1.988281 5.359375 -1.609375 6.453125 -1.609375 C 7.546875 -1.609375 8.476562 -1.988281 9.25 -2.75 C 10.03125 -3.519531 10.421875 -4.457031 10.421875 -5.5625 C 10.421875 -6.664062 10.03125 -7.597656 9.25 -8.359375 C 8.476562 -9.117188 7.546875 -9.5 6.453125 -9.5 Z M 6.453125 -9.5 "/></g></g></g><g fill="#0979bd" fill-opacity="1"><g transform="translate(103.111686, 71.351158)"><g><path d="M 8.53125 0 L 6.484375 -3.375 C 6.378906 -3.363281 6.210938 -3.359375 5.984375 -3.359375 L 3.34375 -3.359375 L 3.34375 0 L 1.46875 0 L 1.46875 -11.140625 L 5.984375 -11.140625 C 7.398438 -11.140625 8.5 -10.804688 9.28125 -10.140625 C 10.070312 -9.472656 10.46875 -8.535156 10.46875 -7.328125 C 10.46875 -6.441406 10.265625 -5.691406 9.859375 -5.078125 C 9.460938 -4.460938 8.894531 -4.007812 8.15625 -3.71875 L 10.65625 0 Z M 3.34375 -5.046875 L 5.984375 -5.046875 C 7.785156 -5.046875 8.6875 -5.789062 8.6875 -7.28125 C 8.6875 -8.726562 7.785156 -9.453125 5.984375 -9.453125 L 3.34375 -9.453125 Z M 3.34375 -5.046875 "/></g></g></g><g fill="#0979bd" fill-opacity="1"><g transform="translate(118.581303, 71.351158)"><g/></g></g><g fill="#0979bd" fill-opacity="1"><g transform="translate(126.659195, 71.351158)"><g><path d="M 9.421875 -9.453125 L 3.34375 -9.453125 L 3.34375 -6.4375 L 8.78125 -6.4375 L 8.78125 -4.75 L 3.34375 -4.75 L 3.34375 -1.6875 L 9.609375 -1.6875 L 9.609375 0 L 1.46875 0 L 1.46875 -11.140625 L 9.421875 -11.140625 Z M 9.421875 -9.453125 "/></g></g></g><g fill="#0979bd" fill-opacity="1"><g transform="translate(141.063757, 71.351158)"><g><path d="M 6.609375 -5.796875 L 10.671875 0 L 8.4375 0 L 5.421875 -4.203125 L 2.4375 0 L 0.234375 0 L 4.296875 -5.703125 L 0.53125 -11.140625 L 2.703125 -11.140625 L 5.421875 -7.265625 L 8.15625 -11.140625 L 10.359375 -11.140625 Z M 6.609375 -5.796875 "/></g></g></g><g fill="#0979bd" fill-opacity="1"><g transform="translate(156.040586, 71.351158)"><g><path d="M 6.390625 -11.1875 C 7.179688 -11.1875 7.945312 -11.035156 8.6875 -10.734375 C 9.4375 -10.429688 10.082031 -10.007812 10.625 -9.46875 L 9.53125 -8.09375 C 9.125 -8.53125 8.644531 -8.875 8.09375 -9.125 C 7.539062 -9.382812 6.984375 -9.515625 6.421875 -9.515625 C 5.304688 -9.515625 4.363281 -9.132812 3.59375 -8.375 C 2.832031 -7.613281 2.453125 -6.6875 2.453125 -5.59375 C 2.453125 -4.488281 2.832031 -3.554688 3.59375 -2.796875 C 4.363281 -2.046875 5.304688 -1.671875 6.421875 -1.671875 C 7.578125 -1.671875 8.613281 -2.109375 9.53125 -2.984375 L 10.640625 -1.75 C 10.066406 -1.1875 9.394531 -0.738281 8.625 -0.40625 C 7.863281 -0.0820312 7.097656 0.078125 6.328125 0.078125 C 4.691406 0.078125 3.316406 -0.460938 2.203125 -1.546875 C 1.097656 -2.640625 0.546875 -3.984375 0.546875 -5.578125 C 0.546875 -7.160156 1.109375 -8.488281 2.234375 -9.5625 C 3.359375 -10.644531 4.742188 -11.1875 6.390625 -11.1875 Z M 6.390625 -11.1875 "/></g></g></g><g fill="#0979bd" fill-opacity="1"><g transform="translate(171.096899, 71.351158)"><g><path d="M 11.125 0 L 9.234375 0 L 9.234375 -4.609375 L 3.34375 -4.609375 L 3.34375 0 L 1.46875 0 L 1.46875 -11.140625 L 3.34375 -11.140625 L 3.34375 -6.296875 L 9.234375 -6.296875 L 9.234375 -11.140625 L 11.125 -11.140625 Z M 11.125 0 "/></g></g></g><g fill="#0979bd" fill-opacity="1"><g transform="translate(187.647453, 71.351158)"><g><path d="M 8.65625 -2.515625 L 3.03125 -2.515625 L 1.96875 0 L 0.015625 0 L 4.9375 -11.140625 L 6.859375 -11.140625 L 11.71875 0 L 9.71875 0 Z M 7.9375 -4.1875 L 5.84375 -9.125 L 3.734375 -4.1875 Z M 7.9375 -4.1875 "/></g></g></g><g fill="#0979bd" fill-opacity="1"><g transform="translate(203.355504, 71.351158)"><g><path d="M 11.125 0 L 9.265625 0 L 3.34375 -7.984375 L 3.34375 0 L 1.46875 0 L 1.46875 -11.140625 L 3.3125 -11.140625 L 9.265625 -3.140625 L 9.265625 -11.140625 L 11.125 -11.140625 Z M 11.125 0 "/></g></g></g><g fill="#0979bd" fill-opacity="1"><g transform="translate(219.921946, 71.351158)"><g><path d="M 9.078125 -5.46875 L 10.71875 -5.46875 L 10.71875 -1.375 C 10.144531 -0.9375 9.46875 -0.582031 8.6875 -0.3125 C 7.914062 -0.0507812 7.148438 0.078125 6.390625 0.078125 C 4.742188 0.078125 3.359375 -0.460938 2.234375 -1.546875 C 1.109375 -2.640625 0.546875 -3.976562 0.546875 -5.5625 C 0.546875 -7.15625 1.117188 -8.488281 2.265625 -9.5625 C 3.410156 -10.644531 4.820312 -11.1875 6.5 -11.1875 C 7.289062 -11.1875 8.0625 -11.046875 8.8125 -10.765625 C 9.570312 -10.484375 10.226562 -10.101562 10.78125 -9.625 L 9.71875 -8.234375 C 8.800781 -9.085938 7.726562 -9.515625 6.5 -9.515625 C 5.363281 -9.515625 4.40625 -9.128906 3.625 -8.359375 C 2.84375 -7.597656 2.453125 -6.664062 2.453125 -5.5625 C 2.453125 -4.445312 2.84375 -3.507812 3.625 -2.75 C 4.414062 -1.988281 5.378906 -1.609375 6.515625 -1.609375 C 7.378906 -1.609375 8.234375 -1.863281 9.078125 -2.375 Z M 9.078125 -5.46875 "/></g></g></g><g fill="#0979bd" fill-opacity="1"><g transform="translate(235.80485, 71.351158)"><g><path d="M 9.421875 -9.453125 L 3.34375 -9.453125 L 3.34375 -6.4375 L 8.78125 -6.4375 L 8.78125 -4.75 L 3.34375 -4.75 L 3.34375 -1.6875 L 9.609375 -1.6875 L 9.609375 0 L 1.46875 0 L 1.46875 -11.140625 L 9.421875 -11.140625 Z M 9.421875 -9.453125 "/></g></g></g><g clip-path="url(#af140dfdb1)"><path fill="#0795ff" d="M 1.40625 27.015625 L 32.484375 42.019531 C 32.867188 42.203125 33.253906 42.203125 33.640625 42.019531 L 64.71875 27.015625 C 64.945312 26.902344 65.125 26.738281 65.257812 26.523438 C 65.390625 26.308594 65.457031 26.074219 65.457031 25.820312 C 65.457031 25.566406 65.390625 25.332031 65.257812 25.117188 C 65.125 24.902344 64.945312 24.738281 64.71875 24.625 L 33.640625 9.621094 C 33.253906 9.4375 32.867188 9.4375 32.484375 9.621094 L 1.40625 24.625 C 1.179688 24.738281 1 24.902344 0.867188 25.117188 C 0.730469 25.332031 0.664062 25.566406 0.664062 25.820312 C 0.664062 26.074219 0.730469 26.308594 0.867188 26.523438 C 1 26.738281 1.179688 26.902344 1.40625 27.015625 Z M 1.40625 27.015625 " fill-opacity="1" fill-rule="nonzero"/></g><g clip-path="url(#6a8833f2a6)"><path fill="#156cdd" d="M 1.40625 45.234375 L 32.484375 60.207031 C 32.867188 60.390625 33.253906 60.390625 33.640625 60.207031 L 64.71875 45.234375 C 64.945312 45.125 65.125 44.960938 65.261719 44.746094 C 65.394531 44.53125 65.460938 44.296875 65.460938 44.046875 C 65.460938 43.792969 65.394531 43.558594 65.261719 43.34375 C 65.125 43.128906 64.945312 42.96875 64.71875 42.859375 L 59.777344 40.453125 C 59.269531 40.199219 58.730469 40.074219 58.160156 40.074219 C 57.59375 40.074219 57.050781 40.199219 56.542969 40.453125 L 37.394531 49.722656 C 36.042969 50.371094 34.617188 50.691406 33.121094 50.691406 C 31.621094 50.691406 30.195312 50.371094 28.84375 49.722656 L 9.59375 40.441406 C 9.082031 40.195312 8.539062 40.070312 7.96875 40.070312 C 7.398438 40.070312 6.859375 40.195312 6.34375 40.441406 L 1.40625 42.828125 C 1.179688 42.9375 0.996094 43.101562 0.863281 43.316406 C 0.730469 43.53125 0.660156 43.761719 0.660156 44.015625 C 0.660156 44.269531 0.730469 44.503906 0.863281 44.71875 C 0.996094 44.933594 1.179688 45.09375 1.40625 45.203125 Z M 1.40625 45.234375 " fill-opacity="1" fill-rule="nonzero"/></g><g clip-path="url(#d612bdf7dc)"><path fill="#156cdd" d="M 64.71875 61.03125 L 59.777344 58.644531 C 59.265625 58.398438 58.726562 58.273438 58.160156 58.273438 C 57.59375 58.273438 57.054688 58.398438 56.542969 58.644531 L 37.394531 67.910156 C 36.042969 68.566406 34.621094 68.898438 33.121094 68.898438 C 31.617188 68.898438 30.195312 68.566406 28.84375 67.910156 L 9.652344 58.644531 C 9.136719 58.398438 8.597656 58.273438 8.027344 58.273438 C 7.457031 58.273438 6.917969 58.398438 6.402344 58.644531 L 1.464844 61.03125 C 1.234375 61.140625 1.054688 61.304688 0.921875 61.519531 C 0.785156 61.734375 0.71875 61.96875 0.71875 62.21875 C 0.71875 62.472656 0.785156 62.707031 0.921875 62.921875 C 1.054688 63.136719 1.234375 63.296875 1.464844 63.40625 L 32.484375 78.410156 C 32.867188 78.59375 33.253906 78.59375 33.640625 78.410156 L 64.71875 63.40625 C 64.945312 63.296875 65.125 63.136719 65.261719 62.921875 C 65.394531 62.707031 65.460938 62.472656 65.460938 62.21875 C 65.460938 61.96875 65.394531 61.734375 65.261719 61.519531 C 65.125 61.304688 64.945312 61.140625 64.71875 61.03125 Z M 64.71875 61.03125 " fill-opacity="1" fill-rule="nonzero"/></g></svg>