<svg xmlns="http://www.w3.org/2000/svg" xmlns:xlink="http://www.w3.org/1999/xlink" width="232" zoomAndPan="magnify"
     viewBox="0 0 174 185.249993" height="247" preserveAspectRatio="xMidYMid meet" version="1.0">
  <defs>
    <clipPath id="d0f04d29c4">
      <path d="M 0.351562 0 L 173.648438 0 L 173.648438 184.503906 L 0.351562 184.503906 Z M 0.351562 0 "
            clip-rule="nonzero"/>
    </clipPath>
    <clipPath id="44fd9b28c0">
      <path d="M 0.351562 0 L 172.902344 0 L 172.902344 88 L 0.351562 88 Z M 0.351562 0 " clip-rule="nonzero"/>
    </clipPath>
    <clipPath id="618feefb22">
      <path d="M 0.351562 81 L 172.902344 81 L 172.902344 136 L 0.351562 136 Z M 0.351562 81 " clip-rule="nonzero"/>
    </clipPath>
    <clipPath id="2fdf2059e5">
      <path d="M 0.351562 129 L 172.902344 129 L 172.902344 183.757812 L 0.351562 183.757812 Z M 0.351562 129 "
            clip-rule="nonzero"/>
    </clipPath>
  </defs>
  <g clip-path="url(#d0f04d29c4)">
    <path fill="#ffffff" d="M 0.351562 0 L 173.648438 0 L 173.648438 184.503906 L 0.351562 184.503906 Z M 0.351562 0 "
          fill-opacity="1" fill-rule="nonzero"/>
  </g>
  <g clip-path="url(#44fd9b28c0)">
    <path fill="#0979bd"
          d="M 2.195312 46.921875 L 84.972656 86.773438 C 85.457031 87.003906 85.972656 87.121094 86.511719 87.121094 C 87.050781 87.121094 87.5625 87.003906 88.046875 86.773438 L 170.824219 46.921875 C 171.425781 46.625 171.90625 46.191406 172.261719 45.617188 C 172.617188 45.046875 172.796875 44.421875 172.796875 43.75 C 172.796875 43.078125 172.617188 42.453125 172.261719 41.882812 C 171.90625 41.308594 171.425781 40.875 170.824219 40.578125 L 88.046875 0.726562 C 87.5625 0.496094 87.050781 0.378906 86.511719 0.378906 C 85.972656 0.378906 85.457031 0.496094 84.972656 0.726562 L 2.195312 40.578125 C 1.59375 40.875 1.113281 41.308594 0.757812 41.882812 C 0.402344 42.453125 0.222656 43.078125 0.222656 43.75 C 0.222656 44.421875 0.402344 45.046875 0.757812 45.617188 C 1.113281 46.191406 1.59375 46.625 2.195312 46.921875 Z M 2.195312 46.921875 "
          fill-opacity="1" fill-rule="nonzero"/>
  </g>
  <g clip-path="url(#618feefb22)">
    <path fill="#156cdd"
          d="M 2.195312 95.3125 L 84.972656 135.082031 C 85.457031 135.3125 85.972656 135.429688 86.511719 135.429688 C 87.050781 135.429688 87.5625 135.3125 88.046875 135.082031 L 170.824219 95.3125 C 171.429688 95.019531 171.910156 94.589844 172.269531 94.019531 C 172.625 93.449219 172.804688 92.828125 172.804688 92.15625 C 172.804688 91.484375 172.625 90.863281 172.269531 90.292969 C 171.910156 89.726562 171.429688 89.292969 170.824219 89.003906 L 157.667969 82.617188 C 156.3125 81.945312 154.875 81.609375 153.359375 81.609375 C 151.84375 81.609375 150.410156 81.945312 149.050781 82.617188 L 98.050781 107.234375 C 96.273438 108.082031 94.421875 108.726562 92.5 109.160156 C 90.578125 109.59375 88.632812 109.8125 86.664062 109.8125 C 84.695312 109.8125 82.75 109.59375 80.828125 109.160156 C 78.90625 108.726562 77.054688 108.082031 75.277344 107.234375 L 24.007812 82.578125 C 22.636719 81.925781 21.195312 81.597656 19.679688 81.597656 C 18.164062 81.597656 16.71875 81.925781 15.351562 82.578125 L 2.195312 88.925781 C 1.589844 89.21875 1.109375 89.648438 0.75 90.21875 C 0.394531 90.785156 0.214844 91.40625 0.214844 92.078125 C 0.214844 92.753906 0.394531 93.375 0.75 93.941406 C 1.109375 94.511719 1.589844 94.941406 2.195312 95.234375 Z M 2.195312 95.3125 "
          fill-opacity="1" fill-rule="nonzero"/>
  </g>
  <g clip-path="url(#2fdf2059e5)">
    <path fill="#156cdd"
          d="M 170.824219 137.273438 L 157.667969 130.929688 C 156.304688 130.273438 154.871094 129.949219 153.359375 129.949219 C 151.851562 129.949219 150.414062 130.273438 149.050781 130.929688 L 98.050781 155.546875 C 96.273438 156.40625 94.425781 157.058594 92.503906 157.5 C 90.582031 157.941406 88.636719 158.160156 86.664062 158.160156 C 84.691406 158.160156 82.746094 157.941406 80.824219 157.5 C 78.902344 157.058594 77.054688 156.40625 75.277344 155.546875 L 24.160156 130.929688 C 22.792969 130.273438 21.347656 129.949219 19.832031 129.949219 C 18.316406 129.949219 16.875 130.273438 15.503906 130.929688 L 2.351562 137.273438 C 1.746094 137.566406 1.261719 137.996094 0.90625 138.566406 C 0.546875 139.136719 0.367188 139.757812 0.367188 140.429688 C 0.367188 141.101562 0.546875 141.722656 0.90625 142.292969 C 1.261719 142.859375 1.746094 143.292969 2.351562 143.582031 L 84.972656 183.433594 C 85.457031 183.664062 85.972656 183.78125 86.511719 183.78125 C 87.050781 183.78125 87.5625 183.664062 88.046875 183.433594 L 170.824219 143.582031 C 171.429688 143.292969 171.910156 142.859375 172.269531 142.292969 C 172.625 141.722656 172.804688 141.101562 172.804688 140.429688 C 172.804688 139.757812 172.625 139.136719 172.269531 138.566406 C 171.910156 137.996094 171.429688 137.566406 170.824219 137.273438 Z M 170.824219 137.273438 "
          fill-opacity="1" fill-rule="nonzero"/>
  </g>
  <path stroke-linecap="butt" transform="matrix(0.746976, 0, 0, 0.746976, 26.945502, 39.327514)" fill="none"
        stroke-linejoin="miter" d="M -0.00025431 1.998456 L 159.999084 1.998456 " stroke="#0979bd" stroke-width="4"
        stroke-opacity="1" stroke-miterlimit="4"/>
</svg>